<svg width="215" height="51" viewBox="0 0 215 51" fill="none" xmlns="http://www.w3.org/2000/svg">
<path fill-rule="evenodd" clip-rule="evenodd" d="M54.4737 30.3159L36.3158 40.4212L54.4737 50.5264L72.6316 40.4212L54.4737 30.3159Z" fill="#86A6DF"/>
<path fill-rule="evenodd" clip-rule="evenodd" d="M18.158 30.3159L0.000129938 40.4212L18.158 50.5264L36.3159 40.4212L18.158 30.3159Z" fill="#86A6DF"/>
<path fill-rule="evenodd" clip-rule="evenodd" d="M18.1578 10.1053L36.3157 0V20.2105L18.1578 30.3158V10.1053Z" fill="#324E7B"/>
<path opacity="0.1" fill-rule="evenodd" clip-rule="evenodd" d="M18.1578 10.1053L36.3157 0V20.2105L18.1578 30.3158V10.1053Z" fill="black"/>
<path fill-rule="evenodd" clip-rule="evenodd" d="M54.4736 10.1053L36.3157 0V20.2105L54.4736 30.3158V10.1053Z" fill="#324E7B"/>
<path fill-rule="evenodd" clip-rule="evenodd" d="M36.3159 37.3894L54.4738 27.2842V30.3158L36.3159 40.421V37.3894Z" fill="#5068A9"/>
<path fill-rule="evenodd" clip-rule="evenodd" d="M36.3159 37.3894L18.158 27.2842V30.3158L36.3159 40.421V37.3894Z" fill="#5068A9"/>
<path fill-rule="evenodd" clip-rule="evenodd" d="M36.3157 17.179L18.1578 27.2842L36.3157 37.3895L54.4736 27.2842L36.3157 17.179Z" fill="#86A6DF"/>
<path fill-rule="evenodd" clip-rule="evenodd" d="M36.3159 21.2211L31.7761 14.1475L27.237 16.1685V26.2738L36.3159 31.3264V21.2211Z" fill="#B6E4FC"/>
<path fill-rule="evenodd" clip-rule="evenodd" d="M36.3159 21.2211L45.3949 16.1685V26.2737L36.3159 31.3264V21.2211Z" fill="white"/>
<path fill-rule="evenodd" clip-rule="evenodd" d="M31.7766 14.1474L40.8556 9.09473L45.3947 16.1684L36.3158 21.221L31.7766 14.1474Z" fill="#5068A9"/>
<path fill-rule="evenodd" clip-rule="evenodd" d="M27.2368 16.1684L36.3158 11.1158L40.8556 9.09473L31.7766 14.1474L27.2368 16.1684Z" fill="#5068A9"/>
<path fill-rule="evenodd" clip-rule="evenodd" d="M27.2368 16.1684L36.3158 11.1158L40.8556 9.09473L31.7766 14.1474L27.2368 16.1684Z" fill="black" fill-opacity="0.3"/>
<path fill-rule="evenodd" clip-rule="evenodd" d="M56.9956 33.3474L52.4558 26.2737L47.9167 28.2947V38.4L56.9956 43.4526V33.3474Z" fill="#B6E4FC"/>
<path fill-rule="evenodd" clip-rule="evenodd" d="M56.9956 33.3473L66.0746 28.2947V38.3999L56.9956 43.4526V33.3473Z" fill="white"/>
<path fill-rule="evenodd" clip-rule="evenodd" d="M52.4564 26.2736L61.5354 21.2209L66.0745 28.2946L56.9956 33.3473L52.4564 26.2736Z" fill="#86A6DF"/>
<path fill-rule="evenodd" clip-rule="evenodd" d="M47.9167 28.2946L56.9957 23.242L61.5355 21.2209L52.4565 26.2736L47.9167 28.2946Z" fill="#86A6DF"/>
<path fill-rule="evenodd" clip-rule="evenodd" d="M47.9167 28.2946L56.9957 23.242L61.5355 21.2209L52.4565 26.2736L47.9167 28.2946Z" fill="black" fill-opacity="0.3"/>
<path fill-rule="evenodd" clip-rule="evenodd" d="M16.6448 33.8527L12.105 26.7791L7.56583 28.8001V38.9054L16.6448 43.958V33.8527Z" fill="#B6E4FC"/>
<path fill-rule="evenodd" clip-rule="evenodd" d="M16.6447 33.8526L25.7236 28.7999V38.9052L16.6447 43.9578V33.8526Z" fill="white"/>
<path fill-rule="evenodd" clip-rule="evenodd" d="M12.1055 26.779L21.1844 21.7263L25.7236 28.8L16.6446 33.8526L12.1055 26.779Z" fill="#324E7B"/>
<path fill-rule="evenodd" clip-rule="evenodd" d="M7.56567 28.8L16.6446 23.7474L21.1844 21.7263L12.1055 26.779L7.56567 28.8Z" fill="#324E7B"/>
<path fill-rule="evenodd" clip-rule="evenodd" d="M7.56567 28.8L16.6446 23.7474L21.1844 21.7263L12.1055 26.779L7.56567 28.8Z" fill="black" fill-opacity="0.3"/>
<path d="M89.11 15.7V37H88.09V26.59H73.93V37H72.88V15.7H73.93V25.63H88.09V15.7H89.11ZM100.707 37.3C99.6469 37.3 98.6569 37.09 97.7369 36.67C96.8169 36.23 96.0069 35.64 95.3069 34.9C94.6269 34.14 94.0869 33.27 93.6869 32.29C93.3069 31.29 93.1169 30.23 93.1169 29.11C93.1169 27.65 93.4469 26.32 94.1069 25.12C94.7669 23.92 95.6569 22.96 96.7769 22.24C97.9169 21.52 99.1869 21.16 100.587 21.16C102.027 21.16 103.307 21.53 104.427 22.27C105.567 22.99 106.467 23.96 107.127 25.18C107.807 26.38 108.157 27.72 108.177 29.2C108.177 29.28 108.167 29.36 108.147 29.44C108.147 29.52 108.147 29.6 108.147 29.68H94.1669C94.2669 30.94 94.6169 32.08 95.2169 33.1C95.8369 34.12 96.6269 34.93 97.5869 35.53C98.5469 36.13 99.6069 36.43 100.767 36.43C101.907 36.43 102.977 36.14 103.977 35.56C104.977 34.96 105.687 34.2 106.107 33.28L107.037 33.52C106.737 34.24 106.267 34.89 105.627 35.47C104.987 36.03 104.237 36.48 103.377 36.82C102.537 37.14 101.647 37.3 100.707 37.3ZM94.1369 28.81H107.157C107.077 27.49 106.737 26.33 106.137 25.33C105.537 24.31 104.757 23.51 103.797 22.93C102.857 22.35 101.797 22.06 100.617 22.06C99.4569 22.06 98.3969 22.35 97.4369 22.93C96.4969 23.51 95.7269 24.31 95.1269 25.33C94.5469 26.35 94.2169 27.51 94.1369 28.81ZM109.86 40.54V36.04H110.07C110.55 36.04 110.99 35.88 111.39 35.56C111.79 35.24 112.14 34.69 112.44 33.91C112.76 33.13 113.01 32.06 113.19 30.7C113.39 29.32 113.52 27.58 113.58 25.48L113.7 21.4H123.03V36.04H125.1V40.54H124.14V37H110.79V40.54H109.86ZM112.14 36.04H122.01V22.36H114.66L114.57 25.51C114.51 27.67 114.37 29.47 114.15 30.91C113.95 32.33 113.68 33.45 113.34 34.27C113.02 35.09 112.62 35.68 112.14 36.04ZM128.387 37V21.4H135.707C136.487 21.4 137.157 21.59 137.717 21.97C138.277 22.35 138.707 22.84 139.007 23.44C139.307 24.02 139.457 24.63 139.457 25.27C139.457 26.07 139.247 26.82 138.827 27.52C138.427 28.2 137.867 28.7 137.147 29.02C138.047 29.26 138.767 29.74 139.307 30.46C139.847 31.18 140.117 32 140.117 32.92C140.117 33.68 139.927 34.37 139.547 34.99C139.167 35.61 138.657 36.1 138.017 36.46C137.377 36.82 136.667 37 135.887 37H128.387ZM129.377 28.75H135.407C135.987 28.75 136.507 28.59 136.967 28.27C137.427 27.93 137.787 27.51 138.047 27.01C138.307 26.49 138.437 25.95 138.437 25.39C138.437 24.55 138.167 23.82 137.627 23.2C137.087 22.56 136.387 22.24 135.527 22.24H129.377V28.75ZM129.377 36.16H135.887C136.487 36.16 137.027 36 137.507 35.68C138.007 35.36 138.397 34.95 138.677 34.45C138.977 33.95 139.127 33.42 139.127 32.86C139.127 32.28 138.987 31.74 138.707 31.24C138.427 30.74 138.057 30.34 137.597 30.04C137.137 29.72 136.607 29.56 136.007 29.56H129.377V36.16ZM143.944 37V21.43H144.964V35.59L155.704 21.4H156.634V37H155.614V23.05L145.024 37H143.944ZM160.353 37L166.383 28.99L161.013 21.4H162.243L167.283 28.57H169.953V21.4H171.003V28.57H173.703L178.683 21.4H179.913L174.543 28.99L180.603 37H179.373L173.703 29.5H171.003V37H169.953V29.5H167.313L161.583 37H160.353ZM184.315 37V21.4H185.335V28.54H188.725L194.485 21.4H195.715L189.565 28.99L196.585 37H195.295L188.725 29.5H185.335V37H184.315ZM198.464 32.53C198.464 31.63 198.734 30.84 199.274 30.16C199.834 29.48 200.594 28.95 201.554 28.57C202.534 28.17 203.664 27.97 204.944 27.97C205.784 27.97 206.654 28.05 207.554 28.21C208.454 28.35 209.264 28.55 209.984 28.81V27.16C209.984 25.64 209.534 24.42 208.634 23.5C207.754 22.56 206.564 22.09 205.064 22.09C204.304 22.09 203.494 22.26 202.634 22.6C201.774 22.92 200.914 23.38 200.054 23.98L199.544 23.23C201.564 21.85 203.424 21.16 205.124 21.16C206.924 21.16 208.354 21.71 209.414 22.81C210.474 23.89 211.004 25.36 211.004 27.22V35.44C211.004 35.88 211.184 36.1 211.544 36.1V37C211.244 37.02 211.054 37.01 210.974 36.97C210.694 36.91 210.474 36.76 210.314 36.52C210.154 36.28 210.064 36.02 210.044 35.74V34.39C209.324 35.31 208.384 36.03 207.224 36.55C206.084 37.05 204.874 37.3 203.594 37.3C202.614 37.3 201.734 37.09 200.954 36.67C200.194 36.23 199.584 35.65 199.124 34.93C198.684 34.21 198.464 33.41 198.464 32.53ZM209.444 33.88C209.804 33.42 209.984 32.98 209.984 32.56V29.71C208.444 29.11 206.784 28.81 205.004 28.81C203.344 28.81 202.004 29.15 200.984 29.83C199.964 30.49 199.454 31.37 199.454 32.47C199.454 33.19 199.634 33.85 199.994 34.45C200.374 35.05 200.884 35.53 201.524 35.89C202.164 36.25 202.894 36.43 203.714 36.43C204.954 36.43 206.084 36.2 207.104 35.74C208.144 35.26 208.924 34.64 209.444 33.88Z" fill="#5068A9"/>
</svg>
