<svg width="200" height="52" viewBox="0 0 200 52" fill="none" xmlns="http://www.w3.org/2000/svg">
<path d="M19.5721 34.1969H32.7383L39.3205 22.7949L32.7383 11.3924H19.5721L12.989 22.7949L19.5721 34.1969Z" fill="#2C9E1C"/>
<path d="M0 22.8062L6.58309 34.209H19.7492L26.3324 22.8062L19.7492 11.4044H6.58309L0 22.8062Z" fill="#0088FF"/>
<path d="M32.6483 11.282L26.0651 22.6838L32.6483 34.0865H45.8143L52.3967 22.6838L45.8143 11.282H32.6483Z" fill="#1C9E75"/>
<path d="M39.3054 22.7799H26.1392L19.557 34.1816L26.1392 45.5844H39.3054L45.8886 34.1816L39.3054 22.7799Z" fill="#0088FF" fill-opacity="0.55"/>
<path d="M52.4838 22.792H39.3176L32.7344 34.1945L39.3176 45.5965H52.4838L59.0668 34.1945L52.4838 22.792Z" fill="#1C9E75" fill-opacity="0.55"/>
<path d="M26.1945 0H13.0284L6.44531 11.4026L13.0284 22.8045H26.1945L32.7777 11.4026L26.1945 0Z" fill="#5FB839" fill-opacity="0.65"/>
<path d="M20.9 24.7578V44.7266H20.3375V34.7984H6.47186V44.7266H5.90936V24.7578H6.47186V34.2359H20.3375V24.7578H20.9ZM31.8297 45.0078C30.8734 45.0078 29.9641 44.8109 29.1016 44.4172C28.2578 44.0047 27.5078 43.4516 26.8516 42.7578C26.2141 42.0453 25.7078 41.2297 25.3328 40.3109C24.9765 39.3734 24.7984 38.3797 24.7984 37.3297C24.7984 35.9609 25.1078 34.7141 25.7266 33.5891C26.3453 32.4641 27.1703 31.5734 28.2016 30.9172C29.2516 30.2422 30.4141 29.9047 31.6891 29.9047C32.9828 29.9047 34.1547 30.2422 35.2047 30.9172C36.2734 31.5922 37.1266 32.5016 37.7641 33.6453C38.4016 34.7703 38.7203 36.0359 38.7203 37.4422V37.7516H25.3609C25.4547 39.0078 25.8015 40.1422 26.4015 41.1547C27.0015 42.1672 27.7797 42.9734 28.7359 43.5734C29.6922 44.1547 30.7328 44.4453 31.8578 44.4453C32.9828 44.4453 34.0328 44.1641 35.0078 43.6016C35.9828 43.0203 36.6766 42.2797 37.0891 41.3797L37.6234 41.5203C37.3609 42.1766 36.9297 42.7766 36.3297 43.3203C35.7484 43.8453 35.0641 44.2578 34.2766 44.5578C33.4891 44.8578 32.6734 45.0078 31.8297 45.0078ZM25.3609 37.1891H38.1297C38.0547 35.8766 37.7266 34.7234 37.1453 33.7297C36.5641 32.7172 35.8047 31.9203 34.8672 31.3391C33.9297 30.7578 32.8797 30.4672 31.7172 30.4672C30.5734 30.4672 29.5328 30.7578 28.5953 31.3391C27.6578 31.9203 26.8984 32.7172 26.3172 33.7297C25.7547 34.7422 25.4359 35.8953 25.3609 37.1891ZM40.4127 48.0172V44.1641H40.6096C41.0596 44.1641 41.4721 44.0141 41.8471 43.7141C42.2408 43.3953 42.5783 42.8516 42.8596 42.0828C43.1596 41.3141 43.4033 40.2641 43.5908 38.9328C43.7783 37.5828 43.9002 35.8766 43.9564 33.8141L44.0689 30.1297H52.4783V44.1641H54.3908V48.0172H53.8283V44.7266H40.9752V48.0172H40.4127ZM42.1564 44.1641H51.9158V30.6922H44.6033L44.5189 33.8141C44.4627 35.9516 44.3314 37.7234 44.1252 39.1297C43.9377 40.5359 43.6752 41.6422 43.3377 42.4484C43.0189 43.2359 42.6252 43.8078 42.1564 44.1641ZM57.5902 44.7266V30.1297H64.2558C64.9496 30.1297 65.5496 30.3078 66.0558 30.6641C66.5621 31.0203 66.9558 31.4797 67.2371 32.0422C67.5183 32.5859 67.659 33.1578 67.659 33.7578C67.659 34.5078 67.4621 35.2016 67.0683 35.8391C66.6933 36.4766 66.1777 36.9453 65.5215 37.2453C66.3652 37.4891 67.0308 37.9578 67.5183 38.6516C68.0246 39.3266 68.2777 40.0859 68.2777 40.9297C68.2777 41.6047 68.0996 42.2328 67.7433 42.8141C67.4058 43.3953 66.9558 43.8641 66.3933 44.2203C65.8308 44.5578 65.2027 44.7266 64.509 44.7266H57.5902ZM58.1527 37.1047H64.059C64.659 37.1047 65.184 36.9453 65.634 36.6266C66.084 36.2891 66.4308 35.8672 66.6746 35.3609C66.9371 34.8547 67.0683 34.3297 67.0683 33.7859C67.0683 32.9609 66.7965 32.2391 66.2527 31.6203C65.7277 30.9828 65.0433 30.6641 64.1996 30.6641H58.1527V37.1047ZM58.1527 44.1922H64.509C65.109 44.1922 65.6527 44.0328 66.1402 43.7141C66.6277 43.3953 67.0121 42.9828 67.2933 42.4766C67.5746 41.9703 67.7152 41.4453 67.7152 40.9016C67.7152 40.3391 67.5746 39.8141 67.2933 39.3266C67.0308 38.8203 66.6652 38.4172 66.1965 38.1172C65.7465 37.7984 65.2308 37.6391 64.6496 37.6391H58.1527V44.1922ZM71.9822 44.7266V30.1578H72.5447V43.9391L83.0916 30.1297H83.5978V44.7266H83.0353V31.1422L72.6291 44.7266H71.9822ZM87.2275 44.7266L92.965 37.2453L87.9025 30.1297H88.6057L93.4713 36.9922H96.2275V30.1297H96.79V36.9922H99.5463L104.384 30.1297H105.087L100.024 37.2453L105.762 44.7266H105.059L99.5463 37.5266H96.79V44.7266H96.2275V37.5266H93.4994L87.9306 44.7266H87.2275ZM109.391 44.7266V30.1578H109.953V43.9391L120.5 30.1297H121.006V44.7266H120.444V31.1422L110.037 44.7266H109.391ZM125.733 44.7266V30.1297H126.239L132.933 41.3516L139.655 30.1297H140.133V44.7266H139.57V31.3109L133.158 42.1109H132.736L126.295 31.3391V44.7266H125.733ZM150.727 45.0078C149.771 45.0078 148.871 44.8109 148.027 44.4172C147.183 44.0234 146.443 43.4797 145.805 42.7859C145.168 42.0734 144.671 41.2672 144.315 40.3672C143.958 39.4484 143.78 38.4828 143.78 37.4703C143.78 36.4391 143.958 35.4734 144.315 34.5734C144.69 33.6547 145.196 32.8484 145.833 32.1547C146.471 31.4422 147.212 30.8891 148.055 30.4953C148.899 30.1016 149.79 29.9047 150.727 29.9047C151.665 29.9047 152.555 30.1016 153.399 30.4953C154.243 30.8891 154.983 31.4422 155.621 32.1547C156.258 32.8484 156.755 33.6547 157.112 34.5734C157.487 35.4734 157.674 36.4391 157.674 37.4703C157.674 38.4828 157.496 39.4484 157.14 40.3672C156.783 41.2672 156.277 42.0734 155.621 42.7859C154.983 43.4797 154.243 44.0234 153.399 44.4172C152.574 44.8109 151.683 45.0078 150.727 45.0078ZM144.343 37.5266C144.343 38.7828 144.624 39.9359 145.187 40.9859C145.768 42.0359 146.537 42.8797 147.493 43.5172C148.468 44.1359 149.537 44.4453 150.699 44.4453C151.862 44.4453 152.93 44.1266 153.905 43.4891C154.88 42.8516 155.658 41.9984 156.24 40.9297C156.821 39.8609 157.112 38.6984 157.112 37.4422C157.112 36.1859 156.821 35.0328 156.24 33.9828C155.658 32.9141 154.88 32.0609 153.905 31.4234C152.949 30.7859 151.89 30.4672 150.727 30.4672C149.583 30.4672 148.524 30.7953 147.549 31.4516C146.574 32.0891 145.796 32.9422 145.215 34.0109C144.633 35.0797 144.343 36.2516 144.343 37.5266ZM167.319 45.0078C166.363 45.0078 165.454 44.8109 164.591 44.4172C163.747 44.0047 162.997 43.4516 162.341 42.7578C161.685 42.0453 161.169 41.2297 160.794 40.3109C160.438 39.3922 160.26 38.4078 160.26 37.3578C160.26 35.9516 160.569 34.6859 161.188 33.5609C161.807 32.4359 162.65 31.5453 163.719 30.8891C164.788 30.2328 165.979 29.9047 167.291 29.9047C168.51 29.9047 169.607 30.1953 170.582 30.7766C171.557 31.3391 172.288 32.1359 172.775 33.1672L172.213 33.3641C171.744 32.4641 171.06 31.7609 170.16 31.2547C169.26 30.7297 168.275 30.4672 167.207 30.4672C166.025 30.4672 164.947 30.7766 163.972 31.3953C163.016 31.9953 162.247 32.8203 161.666 33.8703C161.104 34.9016 160.822 36.0641 160.822 37.3578C160.822 38.6328 161.113 39.8141 161.694 40.9016C162.275 41.9703 163.054 42.8328 164.029 43.4891C165.004 44.1266 166.072 44.4453 167.235 44.4453C168.004 44.4453 168.754 44.3047 169.485 44.0234C170.216 43.7234 170.844 43.3391 171.369 42.8703C171.913 42.4016 172.26 41.9047 172.41 41.3797L172.972 41.5484C172.766 42.2047 172.372 42.7953 171.791 43.3203C171.21 43.8453 170.525 44.2578 169.738 44.5578C168.969 44.8578 168.163 45.0078 167.319 45.0078ZM180.344 44.7266V30.6641H174.69V30.1297H186.531V30.6641H180.906V44.7266H180.344ZM189.481 44.7266V30.1297H190.044V35.6984H194.15C195.705 35.6984 196.859 36.1109 197.609 36.9359C198.359 37.7609 198.734 38.8203 198.734 40.1141C198.734 40.9391 198.564 41.7078 198.229 42.4203C197.891 43.1141 197.385 43.6766 196.709 44.1078C196.053 44.5203 195.219 44.7266 194.206 44.7266H189.481ZM190.044 44.1922H194.206C195.162 44.1922 195.932 43.9953 196.512 43.6016C197.094 43.2078 197.516 42.7016 197.777 42.0828C198.041 41.4641 198.172 40.8078 198.172 40.1141C198.172 39.4391 198.049 38.8109 197.807 38.2297C197.58 37.6297 197.178 37.1516 196.596 36.7953C196.016 36.4203 195.2 36.2328 194.15 36.2328H190.044V44.1922Z" fill="url(#paint0_linear_13_2)"/>
<defs>
<linearGradient id="paint0_linear_13_2" x1="-1.46685" y1="30.4426" x2="361.113" y2="57.8391" gradientUnits="userSpaceOnUse">
<stop offset="0.058782"/>
<stop offset="1" stop-color="#8B9862"/>
</linearGradient>
</defs>
</svg>
