<svg width="180" height="43" viewBox="0 0 180 43" fill="none" xmlns="http://www.w3.org/2000/svg">
<path fill-rule="evenodd" clip-rule="evenodd" d="M0.157715 10.6629L19.3176 0V21.3258L0.157715 31.9888V10.6629Z" fill="#324E7B"/>
<path opacity="0.1" fill-rule="evenodd" clip-rule="evenodd" d="M0.157715 10.6629L19.3176 0V21.3258L0.157715 31.9888V10.6629Z" fill="black"/>
<path fill-rule="evenodd" clip-rule="evenodd" d="M38.4777 10.6629L19.3177 0V21.3258L38.4777 31.9888V10.6629Z" fill="#324E7B"/>
<path fill-rule="evenodd" clip-rule="evenodd" d="M19.3177 39.4528L38.4777 28.7899V31.9887L19.3177 42.6517V39.4528Z" fill="#5068A9"/>
<path fill-rule="evenodd" clip-rule="evenodd" d="M19.3177 39.4528L0.157816 28.7899V31.9887L19.3177 42.6517V39.4528Z" fill="#5068A9"/>
<path fill-rule="evenodd" clip-rule="evenodd" d="M19.3177 18.127L0.157796 28.7899L19.3177 39.4528L38.4777 28.7899L19.3177 18.127Z" fill="#86A6DF"/>
<path fill-rule="evenodd" clip-rule="evenodd" d="M19.3177 22.3923L14.5274 14.9282L9.73778 17.0608V27.7237L19.3177 33.0552V22.3923Z" fill="#B6E4FC"/>
<path fill-rule="evenodd" clip-rule="evenodd" d="M19.3177 22.3921L28.8977 17.0606V27.7235L19.3177 33.055V22.3921Z" fill="white"/>
<path fill-rule="evenodd" clip-rule="evenodd" d="M14.5282 14.928L24.1082 9.59656L28.8978 17.0606L19.3178 22.3921L14.5282 14.928Z" fill="#5068A9"/>
<path fill-rule="evenodd" clip-rule="evenodd" d="M9.73755 17.0606L19.3175 11.7291L24.1078 9.59656L14.5279 14.928L9.73755 17.0606Z" fill="#5068A9"/>
<path fill-rule="evenodd" clip-rule="evenodd" d="M9.73755 17.0606L19.3175 11.7291L24.1078 9.59656L14.5279 14.928L9.73755 17.0606Z" fill="black" fill-opacity="0.3"/>
<path d="M54.11 10.7V32H53.09V21.59H38.93V32H37.88V10.7H38.93V20.63H53.09V10.7H54.11ZM65.7069 32.3C64.6469 32.3 63.6569 32.09 62.7369 31.67C61.8169 31.23 61.0069 30.64 60.3069 29.9C59.6269 29.14 59.0869 28.27 58.6869 27.29C58.3069 26.29 58.1169 25.23 58.1169 24.11C58.1169 22.65 58.4469 21.32 59.1069 20.12C59.7669 18.92 60.6569 17.96 61.7769 17.24C62.9169 16.52 64.1869 16.16 65.5869 16.16C67.0269 16.16 68.3069 16.53 69.4269 17.27C70.5669 17.99 71.4669 18.96 72.1269 20.18C72.8069 21.38 73.1569 22.72 73.1769 24.2C73.1769 24.28 73.1669 24.36 73.1469 24.44C73.1469 24.52 73.1469 24.6 73.1469 24.68H59.1669C59.2669 25.94 59.6169 27.08 60.2169 28.1C60.8369 29.12 61.6269 29.93 62.5869 30.53C63.5469 31.13 64.6069 31.43 65.7669 31.43C66.9069 31.43 67.9769 31.14 68.9769 30.56C69.9769 29.96 70.6869 29.2 71.1069 28.28L72.0369 28.52C71.7369 29.24 71.2669 29.89 70.6269 30.47C69.9869 31.03 69.2369 31.48 68.3769 31.82C67.5369 32.14 66.6469 32.3 65.7069 32.3ZM59.1369 23.81H72.1569C72.0769 22.49 71.7369 21.33 71.1369 20.33C70.5369 19.31 69.7569 18.51 68.7969 17.93C67.8569 17.35 66.7969 17.06 65.6169 17.06C64.4569 17.06 63.3969 17.35 62.4369 17.93C61.4969 18.51 60.7269 19.31 60.1269 20.33C59.5469 21.35 59.2169 22.51 59.1369 23.81ZM74.8599 35.54V31.04H75.0699C75.5499 31.04 75.9899 30.88 76.3899 30.56C76.7899 30.24 77.1399 29.69 77.4399 28.91C77.7599 28.13 78.0099 27.06 78.1899 25.7C78.3899 24.32 78.5199 22.58 78.5799 20.48L78.6999 16.4H88.0299V31.04H90.0999V35.54H89.1399V32H75.7899V35.54H74.8599ZM77.1399 31.04H87.0099V17.36H79.6599L79.5699 20.51C79.5099 22.67 79.3699 24.47 79.1499 25.91C78.9499 27.33 78.6799 28.45 78.3399 29.27C78.0199 30.09 77.6199 30.68 77.1399 31.04ZM93.387 32V16.4H100.707C101.487 16.4 102.157 16.59 102.717 16.97C103.277 17.35 103.707 17.84 104.007 18.44C104.307 19.02 104.457 19.63 104.457 20.27C104.457 21.07 104.247 21.82 103.827 22.52C103.427 23.2 102.867 23.7 102.147 24.02C103.047 24.26 103.767 24.74 104.307 25.46C104.847 26.18 105.117 27 105.117 27.92C105.117 28.68 104.927 29.37 104.547 29.99C104.167 30.61 103.657 31.1 103.017 31.46C102.377 31.82 101.667 32 100.887 32H93.387ZM94.377 23.75H100.407C100.987 23.75 101.507 23.59 101.967 23.27C102.427 22.93 102.787 22.51 103.047 22.01C103.307 21.49 103.437 20.95 103.437 20.39C103.437 19.55 103.167 18.82 102.627 18.2C102.087 17.56 101.387 17.24 100.527 17.24H94.377V23.75ZM94.377 31.16H100.887C101.487 31.16 102.027 31 102.507 30.68C103.007 30.36 103.397 29.95 103.677 29.45C103.977 28.95 104.127 28.42 104.127 27.86C104.127 27.28 103.987 26.74 103.707 26.24C103.427 25.74 103.057 25.34 102.597 25.04C102.137 24.72 101.607 24.56 101.007 24.56H94.377V31.16ZM108.944 32V16.43H109.964V30.59L120.704 16.4H121.634V32H120.614V18.05L110.024 32H108.944ZM125.353 32L131.383 23.99L126.013 16.4H127.243L132.283 23.57H134.953V16.4H136.003V23.57H138.703L143.683 16.4H144.913L139.543 23.99L145.603 32H144.373L138.703 24.5H136.003V32H134.953V24.5H132.313L126.583 32H125.353ZM149.315 32V16.4H150.335V23.54H153.725L159.485 16.4H160.715L154.565 23.99L161.585 32H160.295L153.725 24.5H150.335V32H149.315ZM163.464 27.53C163.464 26.63 163.734 25.84 164.274 25.16C164.834 24.48 165.594 23.95 166.554 23.57C167.534 23.17 168.664 22.97 169.944 22.97C170.784 22.97 171.654 23.05 172.554 23.21C173.454 23.35 174.264 23.55 174.984 23.81V22.16C174.984 20.64 174.534 19.42 173.634 18.5C172.754 17.56 171.564 17.09 170.064 17.09C169.304 17.09 168.494 17.26 167.634 17.6C166.774 17.92 165.914 18.38 165.054 18.98L164.544 18.23C166.564 16.85 168.424 16.16 170.124 16.16C171.924 16.16 173.354 16.71 174.414 17.81C175.474 18.89 176.004 20.36 176.004 22.22V30.44C176.004 30.88 176.184 31.1 176.544 31.1V32C176.244 32.02 176.054 32.01 175.974 31.97C175.694 31.91 175.474 31.76 175.314 31.52C175.154 31.28 175.064 31.02 175.044 30.74V29.39C174.324 30.31 173.384 31.03 172.224 31.55C171.084 32.05 169.874 32.3 168.594 32.3C167.614 32.3 166.734 32.09 165.954 31.67C165.194 31.23 164.584 30.65 164.124 29.93C163.684 29.21 163.464 28.41 163.464 27.53ZM174.444 28.88C174.804 28.42 174.984 27.98 174.984 27.56V24.71C173.444 24.11 171.784 23.81 170.004 23.81C168.344 23.81 167.004 24.15 165.984 24.83C164.964 25.49 164.454 26.37 164.454 27.47C164.454 28.19 164.634 28.85 164.994 29.45C165.374 30.05 165.884 30.53 166.524 30.89C167.164 31.25 167.894 31.43 168.714 31.43C169.954 31.43 171.084 31.2 172.104 30.74C173.144 30.26 173.924 29.64 174.444 28.88Z" fill="#5068A9"/>
</svg>
