<svg width="298" height="51" viewBox="0 0 298 51" fill="none" xmlns="http://www.w3.org/2000/svg">
<path fill-rule="evenodd" clip-rule="evenodd" d="M54.4737 30.3159L36.3158 40.4212L54.4737 50.5264L72.6316 40.4212L54.4737 30.3159Z" fill="#86A6DF"/>
<path fill-rule="evenodd" clip-rule="evenodd" d="M18.158 30.3159L0.000129938 40.4212L18.158 50.5264L36.3159 40.4212L18.158 30.3159Z" fill="#86A6DF"/>
<path fill-rule="evenodd" clip-rule="evenodd" d="M18.1578 10.1053L36.3157 0V20.2105L18.1578 30.3158V10.1053Z" fill="#324E7B"/>
<path opacity="0.1" fill-rule="evenodd" clip-rule="evenodd" d="M18.1578 10.1053L36.3157 0V20.2105L18.1578 30.3158V10.1053Z" fill="black"/>
<path fill-rule="evenodd" clip-rule="evenodd" d="M54.4736 10.1053L36.3157 0V20.2105L54.4736 30.3158V10.1053Z" fill="#324E7B"/>
<path fill-rule="evenodd" clip-rule="evenodd" d="M36.3159 37.3894L54.4738 27.2842V30.3158L36.3159 40.421V37.3894Z" fill="#5068A9"/>
<path fill-rule="evenodd" clip-rule="evenodd" d="M36.3159 37.3894L18.158 27.2842V30.3158L36.3159 40.421V37.3894Z" fill="#5068A9"/>
<path fill-rule="evenodd" clip-rule="evenodd" d="M36.3157 17.179L18.1578 27.2842L36.3157 37.3895L54.4736 27.2842L36.3157 17.179Z" fill="#86A6DF"/>
<path fill-rule="evenodd" clip-rule="evenodd" d="M36.3159 21.2211L31.7761 14.1475L27.237 16.1685V26.2738L36.3159 31.3264V21.2211Z" fill="#B6E4FC"/>
<path fill-rule="evenodd" clip-rule="evenodd" d="M36.3159 21.2211L45.3949 16.1685V26.2737L36.3159 31.3264V21.2211Z" fill="white"/>
<path fill-rule="evenodd" clip-rule="evenodd" d="M31.7766 14.1474L40.8556 9.09473L45.3947 16.1684L36.3158 21.221L31.7766 14.1474Z" fill="#5068A9"/>
<path fill-rule="evenodd" clip-rule="evenodd" d="M27.2368 16.1684L36.3158 11.1158L40.8556 9.09473L31.7766 14.1474L27.2368 16.1684Z" fill="#5068A9"/>
<path fill-rule="evenodd" clip-rule="evenodd" d="M27.2368 16.1684L36.3158 11.1158L40.8556 9.09473L31.7766 14.1474L27.2368 16.1684Z" fill="black" fill-opacity="0.3"/>
<path fill-rule="evenodd" clip-rule="evenodd" d="M56.9956 33.3474L52.4558 26.2737L47.9167 28.2947V38.4L56.9956 43.4526V33.3474Z" fill="#B6E4FC"/>
<path fill-rule="evenodd" clip-rule="evenodd" d="M56.9956 33.3473L66.0746 28.2947V38.3999L56.9956 43.4526V33.3473Z" fill="white"/>
<path fill-rule="evenodd" clip-rule="evenodd" d="M52.4564 26.2736L61.5354 21.2209L66.0745 28.2946L56.9956 33.3473L52.4564 26.2736Z" fill="#86A6DF"/>
<path fill-rule="evenodd" clip-rule="evenodd" d="M47.9167 28.2946L56.9957 23.242L61.5355 21.2209L52.4565 26.2736L47.9167 28.2946Z" fill="#86A6DF"/>
<path fill-rule="evenodd" clip-rule="evenodd" d="M47.9167 28.2946L56.9957 23.242L61.5355 21.2209L52.4565 26.2736L47.9167 28.2946Z" fill="black" fill-opacity="0.3"/>
<path fill-rule="evenodd" clip-rule="evenodd" d="M16.6448 33.8527L12.105 26.7791L7.56583 28.8001V38.9054L16.6448 43.958V33.8527Z" fill="#B6E4FC"/>
<path fill-rule="evenodd" clip-rule="evenodd" d="M16.6447 33.8526L25.7236 28.7999V38.9052L16.6447 43.9578V33.8526Z" fill="white"/>
<path fill-rule="evenodd" clip-rule="evenodd" d="M12.1055 26.779L21.1844 21.7263L25.7236 28.8L16.6446 33.8526L12.1055 26.779Z" fill="#324E7B"/>
<path fill-rule="evenodd" clip-rule="evenodd" d="M7.56567 28.8L16.6446 23.7474L21.1844 21.7263L12.1055 26.779L7.56567 28.8Z" fill="#324E7B"/>
<path fill-rule="evenodd" clip-rule="evenodd" d="M7.56567 28.8L16.6446 23.7474L21.1844 21.7263L12.1055 26.779L7.56567 28.8Z" fill="black" fill-opacity="0.3"/>
<path d="M89.29 15.7V37H87.76V26.8H74.32V37H72.79V15.7H74.32V25.42H87.76V15.7H89.29ZM100.796 37.3C99.3362 37.3 98.0162 36.93 96.8362 36.19C95.6762 35.45 94.7562 34.46 94.0762 33.22C93.4162 31.98 93.0862 30.62 93.0862 29.14C93.0862 27.68 93.4162 26.35 94.0762 25.15C94.7362 23.93 95.6462 22.96 96.8062 22.24C97.9662 21.5 99.2662 21.13 100.706 21.13C102.186 21.13 103.496 21.5 104.636 22.24C105.796 22.96 106.706 23.93 107.366 25.15C108.026 26.37 108.356 27.7 108.356 29.14C108.356 29.38 108.346 29.6 108.326 29.8H94.6462C94.7262 31 95.0562 32.08 95.6362 33.04C96.2162 33.98 96.9562 34.73 97.8562 35.29C98.7762 35.83 99.7762 36.1 100.856 36.1C101.936 36.1 102.956 35.82 103.916 35.26C104.876 34.7 105.546 33.98 105.926 33.1L107.246 33.46C106.946 34.2 106.466 34.86 105.806 35.44C105.166 36.02 104.406 36.48 103.526 36.82C102.666 37.14 101.756 37.3 100.796 37.3ZM94.5862 28.63H106.916C106.836 27.41 106.506 26.33 105.926 25.39C105.366 24.43 104.636 23.69 103.736 23.17C102.836 22.63 101.836 22.36 100.736 22.36C99.6362 22.36 98.6362 22.63 97.7362 23.17C96.8362 23.71 96.1062 24.46 95.5462 25.42C94.9862 26.36 94.6662 27.43 94.5862 28.63ZM109.916 40.6V35.62H110.156C110.636 35.62 111.066 35.47 111.446 35.17C111.846 34.87 112.196 34.35 112.496 33.61C112.796 32.87 113.036 31.85 113.216 30.55C113.416 29.25 113.546 27.6 113.606 25.6L113.726 21.4H123.446V35.62H125.546V40.6H124.166V37H111.266V40.6H109.916ZM112.706 35.62H121.946V22.75H115.106L115.016 25.69C114.916 28.73 114.676 31.02 114.296 32.56C113.916 34.08 113.386 35.1 112.706 35.62ZM128.736 37V21.4H136.266C137.106 21.4 137.816 21.59 138.396 21.97C138.976 22.33 139.416 22.81 139.716 23.41C140.016 23.99 140.166 24.6 140.166 25.24C140.166 26.06 139.956 26.81 139.536 27.49C139.136 28.17 138.576 28.67 137.856 28.99C138.756 29.25 139.476 29.74 140.016 30.46C140.556 31.16 140.826 31.97 140.826 32.89C140.826 33.69 140.626 34.4 140.226 35.02C139.846 35.64 139.316 36.13 138.636 36.49C137.976 36.83 137.216 37 136.356 37H128.736ZM130.176 28.6H135.846C136.406 28.6 136.896 28.45 137.316 28.15C137.756 27.83 138.096 27.44 138.336 26.98C138.576 26.5 138.696 25.99 138.696 25.45C138.696 24.67 138.436 23.99 137.916 23.41C137.416 22.83 136.766 22.54 135.966 22.54H130.176V28.6ZM130.176 35.86H136.326C136.906 35.86 137.426 35.71 137.886 35.41C138.346 35.11 138.706 34.73 138.966 34.27C139.246 33.79 139.386 33.29 139.386 32.77C139.386 31.95 139.106 31.23 138.546 30.61C137.986 29.99 137.286 29.68 136.446 29.68H130.176V35.86ZM144.528 37V21.43H146.028V34.96L156.168 21.4H157.548V37H156.048V23.68L146.028 37H144.528ZM161.084 37L167.024 28.99L161.684 21.4H163.424L168.314 28.36H170.684V21.4H172.214V28.36H174.644L179.474 21.4H181.214L175.874 28.99L181.844 37H180.104L174.644 29.68H172.214V37H170.684V29.68H168.344L162.824 37H161.084ZM185.426 37V21.43H186.926V34.96L197.066 21.4H198.446V37H196.946V23.68L186.926 37H185.426ZM203.092 37V21.4H204.592L211.162 32.62L217.732 21.4H219.202V37H217.762V23.77L211.642 34.21H210.652L204.532 23.8V37H203.092ZM230.433 37.3C228.973 37.3 227.663 36.93 226.503 36.19C225.363 35.45 224.463 34.47 223.803 33.25C223.143 32.03 222.813 30.69 222.813 29.23C222.813 28.13 223.003 27.1 223.383 26.14C223.763 25.16 224.303 24.3 225.003 23.56C225.703 22.8 226.513 22.21 227.433 21.79C228.353 21.35 229.353 21.13 230.433 21.13C231.513 21.13 232.513 21.35 233.433 21.79C234.353 22.21 235.153 22.8 235.833 23.56C236.533 24.3 237.073 25.16 237.453 26.14C237.853 27.1 238.053 28.13 238.053 29.23C238.053 30.69 237.713 32.03 237.033 33.25C236.373 34.47 235.463 35.45 234.303 36.19C233.163 36.93 231.873 37.3 230.433 37.3ZM224.313 29.29C224.313 30.51 224.583 31.63 225.123 32.65C225.683 33.65 226.423 34.45 227.343 35.05C228.263 35.65 229.283 35.95 230.403 35.95C231.523 35.95 232.543 35.65 233.463 35.05C234.403 34.43 235.143 33.61 235.683 32.59C236.243 31.57 236.523 30.44 236.523 29.2C236.523 27.98 236.243 26.86 235.683 25.84C235.143 24.82 234.403 24.01 233.463 23.41C232.543 22.79 231.533 22.48 230.433 22.48C229.313 22.48 228.293 22.79 227.373 23.41C226.453 24.03 225.713 24.86 225.153 25.9C224.593 26.92 224.313 28.05 224.313 29.29ZM248.277 37.3C246.817 37.3 245.507 36.93 244.347 36.19C243.187 35.45 242.267 34.46 241.587 33.22C240.907 31.98 240.567 30.62 240.567 29.14C240.567 27.66 240.897 26.32 241.557 25.12C242.217 23.9 243.127 22.93 244.287 22.21C245.447 21.49 246.767 21.13 248.247 21.13C249.667 21.13 250.917 21.46 251.997 22.12C253.077 22.76 253.887 23.64 254.427 24.76L252.957 25.24C252.497 24.38 251.837 23.71 250.977 23.23C250.137 22.73 249.207 22.48 248.187 22.48C247.047 22.48 246.017 22.78 245.097 23.38C244.177 23.96 243.437 24.75 242.877 25.75C242.337 26.75 242.067 27.88 242.067 29.14C242.067 30.4 242.347 31.55 242.907 32.59C243.467 33.61 244.207 34.43 245.127 35.05C246.067 35.65 247.097 35.95 248.217 35.95C248.937 35.95 249.637 35.82 250.317 35.56C251.017 35.28 251.617 34.92 252.117 34.48C252.637 34.04 252.977 33.57 253.137 33.07L254.607 33.49C254.347 34.23 253.897 34.89 253.257 35.47C252.637 36.03 251.897 36.48 251.037 36.82C250.177 37.14 249.257 37.3 248.277 37.3ZM261.984 37V22.75H256.254V21.4H269.244V22.75H263.484V37H261.984ZM272.145 37V21.4H273.645V27.07H277.815C279.555 27.07 280.855 27.52 281.715 28.42C282.575 29.32 283.005 30.49 283.005 31.93C283.005 32.87 282.815 33.72 282.435 34.48C282.055 35.24 281.485 35.85 280.725 36.31C279.985 36.77 279.055 37 277.935 37H272.145ZM273.645 35.77H277.755C278.655 35.77 279.375 35.59 279.915 35.23C280.475 34.87 280.875 34.4 281.115 33.82C281.375 33.24 281.505 32.62 281.505 31.96C281.505 31.32 281.385 30.72 281.145 30.16C280.925 29.6 280.535 29.15 279.975 28.81C279.435 28.47 278.675 28.3 277.695 28.3H273.645V35.77Z" fill="#5068A9"/>
</svg>
